<?xml version="1.0" encoding="UTF-8" standalone="no"?>
<svg width="2208px" height="1076px" viewBox="0 0 2208 1076" version="1.1" xmlns="http://www.w3.org/2000/svg" xmlns:xlink="http://www.w3.org/1999/xlink" xmlns:sketch="http://www.bohemiancoding.com/sketch/ns">
    <!-- Generator: Sketch 3.3.2 (12043) - http://www.bohemiancoding.com/sketch -->
    <title>bentobox</title>
    <desc>Created with Sketch.</desc>
    <defs></defs>
    <g id="Page-1" stroke="none" stroke-width="1" fill="none" fill-rule="evenodd" sketch:type="MSPage">
        <g id="bentobox" sketch:type="MSLayerGroup" transform="translate(1104.000000, 538.000000) rotate(-270.000000) translate(-1104.000000, -538.000000) translate(573.000000, -560.000000)" stroke-width="12" stroke="#404041">
            <g id="Page-1" sketch:type="MSShapeGroup">
                <g id="Group">
                    <path d="M0.8125,1.71875 L0.8125,2192.39308 L1006.37475,2192.39308 L1006.37475,1.71875 L0.8125,1.71875 L0.8125,1.71875 Z" id="Path-1"></path>
                    <path d="M7.984375,3.84375 L76.046875,76.078125 L77.109375,2121.60938 L0.546875,2195.0625" id="Path-2"></path>
                    <path d="M78,2125 L1010.29696,2129" id="Path-4"></path>
                    <path d="M78,78 L1010.29696,78" id="Path-5"></path>
                    <path d="M1006.18203,0.447580106 L1061.96875,61.9064092 L1057.96875,2140.54386 L1006.18203,2192.26496" id="Path-6"></path>
                    <path d="M619.469922,1412.92189 L621.282401,1803.70438 L597.568635,1997.74856 L617.639258,2165.4871 L617.639258,2192.26496 L652.003608,2192.26496 L652.003608,1412.1225" id="Path-7" fill="#E7E7E8"></path>
                    <path d="M389.467006,1.71875 L359.048889,1367.94535 L390.370215,1370.22962 L406.40974,668.066563 L435.033565,338.149414 L417.575578,48.5191183 L419.321376,1.71875 L389.467006,1.71875 L389.467006,1.71875 Z" id="Path-8" fill="#E7E7E8"></path>
                    <path d="M77.9571137,1379.74059 L110.800148,1379.74059 L308.472525,1359.80333 L535.874506,1380.34677 L1005.94157,1381.29241 L1005.94157,1410.80732 L77.9571137,1410.80732 L77.9571137,1379.74059 L77.9571137,1379.74059 Z" id="Path-7" fill="#E7E7E8"></path>
                    <path d="M689.858247,984.267696 L834.642671,982.432057 L842.863431,1317.6938 L692.862621,1318.35411 L689.858247,984.267696 L689.858247,984.267696 Z" id="Path-9"></path>
                    <path d="M706.530873,604.316709 L852.556664,620.163958 L819.68683,949.793328 L673.1394,937.465489 L706.530873,604.316709 L706.530873,604.316709 Z" id="Path-10"></path>
                    <path d="M676.625795,247.093318 L824.929628,239.460226 L839.608142,572.470343 L691.958008,580.545837 L676.625795,247.093318 L676.625795,247.093318 Z" id="Path-11"></path>
                    <path d="M889.659035,241.335484 L943.526473,241.989183 L945.35551,1320.9689 L891.045669,1320.38123 L889.659035,241.335484 L889.659035,241.335484 Z" id="Path-12"></path>
                </g>
            </g>
        </g>
    </g>
</svg>