<?xml version="1.0" encoding="UTF-8" standalone="no"?>
<svg width="462px" height="660px" viewBox="0 0 462 660" version="1.1" xmlns="http://www.w3.org/2000/svg" xmlns:xlink="http://www.w3.org/1999/xlink" xmlns:sketch="http://www.bohemiancoding.com/sketch/ns">
    <!-- Generator: Sketch 3.2.2 (9983) - http://www.bohemiancoding.com/sketch -->
    <title>flask</title>
    <desc>Created with Sketch.</desc>
    <defs></defs>
    <g id="Page-1" stroke="none" stroke-width="1" fill="none" fill-rule="evenodd" sketch:type="MSPage">
        <g id="flask" sketch:type="MSArtboardGroup">
            <g id="Group" sketch:type="MSLayerGroup">
                <path d="M0,462 L66,462 L66,594 L0,594 L0,462 Z M396,462 L462,462 L462,594 L396,594 L396,462 Z M132,198 L198,198 L198,396 L132,396 L132,198 Z M66,396 L132,396 L132,462 L66,462 L66,396 Z M66,132 L132,132 L132,198 L66,198 L66,132 Z M264,198 L330,198 L330,396 L264,396 L264,198 Z M330,396 L396,396 L396,462 L330,462 L330,396 Z M330,132 L396,132 L396,198 L330,198 L330,132 Z M66,594 L396,594 L396,660 L66,660 L66,594 Z" id="Rectangle-11" fill="#FFFFFF" sketch:type="MSShapeGroup"></path>
                <path d="M66,462 L396,462 L396,594 L66,594 L66,462 Z M198,66 L264,66 L264,132 L198,132 L198,66 Z M330,0 L396,0 L396,66 L330,66 L330,0 Z" id="Rectangle-20" fill="#F38430" sketch:type="MSShapeGroup"></path>
            </g>
        </g>
    </g>
</svg>