<?xml version="1.0" encoding="UTF-8" standalone="no"?>
<svg width="560px" height="480px" viewBox="0 0 560 480" version="1.1" xmlns="http://www.w3.org/2000/svg" xmlns:xlink="http://www.w3.org/1999/xlink" xmlns:sketch="http://www.bohemiancoding.com/sketch/ns">
    <!-- Generator: Sketch 3.2.2 (9983) - http://www.bohemiancoding.com/sketch -->
    <title>heart</title>
    <desc>Created with Sketch.</desc>
    <defs></defs>
    <g id="Page-1" stroke="none" stroke-width="1" fill="none" fill-rule="evenodd" sketch:type="MSPage">
        <g id="heart" sketch:type="MSArtboardGroup" fill="#FFFFFF">
            <path d="M240,80 L320,80 L320,160 L240,160 L240,80 Z M80,240 L160,240 L160,320 L80,320 L80,240 Z M160,320 L240,320 L240,400 L160,400 L160,320 Z M240,400 L320,400 L320,480 L240,480 L240,400 Z M320,320 L400,320 L400,400 L320,400 L320,320 Z M400,240 L480,240 L480,320 L400,320 L400,240 Z M320,0 L480,0 L480,80 L320,80 L320,0 Z M80,0 L240,0 L240,80 L80,80 L80,0 Z M0,80 L80,80 L80,240 L0,240 L0,80 Z M480,80 L560,80 L560,240 L480,240 L480,80 Z" id="Rectangle-1" sketch:type="MSShapeGroup"></path>
        </g>
    </g>
</svg>