<?xml version="1.0" encoding="UTF-8" standalone="no"?>
<svg width="520px" height="400px" viewBox="0 0 520 400" version="1.1" xmlns="http://www.w3.org/2000/svg" xmlns:xlink="http://www.w3.org/1999/xlink" xmlns:sketch="http://www.bohemiancoding.com/sketch/ns">
    <!-- Generator: Sketch 3.2.2 (9983) - http://www.bohemiancoding.com/sketch -->
    <title>ruby</title>
    <desc>Created with Sketch.</desc>
    <defs></defs>
    <g id="Page-1" stroke="none" stroke-width="1" fill="none" fill-rule="evenodd" sketch:type="MSPage">
        <g id="ruby" sketch:type="MSArtboardGroup" fill="#FFFFFF">
            <path d="M0,120 L40,120 L40,160 L0,160 L0,120 Z M480,120 L520,120 L520,160 L480,160 L480,120 Z M440,80 L480,80 L480,120 L440,120 L440,80 Z M400,40 L440,40 L440,80 L400,80 L400,40 Z M120,240 L160,240 L160,280 L120,280 L120,240 Z M80,200 L120,200 L120,240 L80,240 L80,200 Z M40,160 L80,160 L80,200 L40,200 L40,160 Z M240,360 L280,360 L280,400 L240,400 L240,360 Z M200,320 L240,320 L240,360 L200,360 L200,320 Z M160,280 L200,280 L200,320 L160,320 L160,280 Z M320,80 L360,80 L360,120 L320,120 L320,80 Z M280,40 L320,40 L320,80 L280,80 L280,40 Z M40,80 L80,80 L80,120 L40,120 L40,80 Z M80,40 L120,40 L120,80 L80,80 L80,40 Z M280,320 L320,320 L320,360 L280,360 L280,320 Z M320,280 L360,280 L360,320 L320,320 L320,280 Z M240,240 L280,240 L280,280 L240,280 L240,240 Z M200,200 L240,200 L240,240 L200,240 L200,200 Z M160,160 L200,160 L200,200 L160,200 L160,160 Z M280,200 L320,200 L320,240 L280,240 L280,200 Z M320,160 L360,160 L360,200 L320,200 L320,160 Z M360,240 L400,240 L400,280 L360,280 L360,240 Z M400,200 L440,200 L440,240 L400,240 L400,200 Z M440,160 L480,160 L480,200 L440,200 L440,160 Z M160,80 L200,80 L200,120 L160,120 L160,80 Z M200,40 L240,40 L240,80 L200,80 L200,40 Z M120,0 L400,0 L400,40 L120,40 L120,0 Z M80,120 L440,120 L440,160 L80,160 L80,120 Z" id="Rectangle-23" sketch:type="MSShapeGroup"></path>
        </g>
    </g>
</svg>